<?xml version="1.0" standalone="no"?>
<!DOCTYPE svg PUBLIC "-//W3C//DTD SVG 20010904//EN"
 "http://www.w3.org/TR/2001/REC-SVG-20010904/DTD/svg10.dtd">
<svg version="1.0" xmlns="http://www.w3.org/2000/svg"
 width="250.000000pt" height="159.000000pt" viewBox="0 0 250.000000 159.000000"
 preserveAspectRatio="xMidYMid meet">

<g transform="translate(0.000000,159.000000) scale(0.100000,-0.100000)"
fill="#993399" stroke="none">
<path d="M285 975 c-21 -21 -25 -33 -25 -89 0 -36 -4 -68 -10 -71 -5 -3 -10
-19 -10 -36 0 -16 5 -29 10 -29 6 0 10 -32 10 -76 0 -107 16 -134 83 -134 32
0 37 3 37 24 0 15 -7 26 -20 29 -18 5 -20 14 -20 80 0 71 -2 77 -27 96 -21 15
-24 20 -11 21 25 0 38 32 38 95 0 40 4 57 15 61 8 4 15 17 15 30 0 20 -5 24
-30 24 -19 0 -40 -9 -55 -25z"/>
<path d="M1825 976 c0 -13 7 -26 15 -30 11 -4 15 -20 15 -55 0 -60 14 -101 35
-101 8 0 15 -4 15 -10 0 -5 -7 -10 -15 -10 -24 0 -35 -35 -35 -109 0 -56 -3
-71 -15 -71 -9 0 -15 -9 -15 -25 0 -22 4 -25 35 -25 59 0 75 26 75 119 0 58 4
82 15 91 8 7 15 23 15 35 0 13 -7 25 -15 29 -11 4 -15 22 -15 73 0 37 -4 73
-8 79 -11 18 -48 34 -76 34 -21 0 -26 -5 -26 -24z"/>
<path d="M540 790 l0 -170 40 0 40 0 0 66 0 65 38 -3 c37 -3 37 -3 51 -65 l15
-63 43 0 c24 0 43 3 43 8 0 4 -8 34 -18 67 -13 42 -25 64 -41 71 l-23 12 28
13 c38 19 51 57 36 108 -16 50 -45 61 -163 61 l-89 0 0 -170z m171 89 c8 -16
8 -28 0 -45 -9 -20 -18 -24 -51 -24 l-40 0 0 45 0 45 40 0 c30 0 42 -5 51 -21z"/>
<path d="M889 941 c-23 -18 -24 -25 -24 -151 0 -126 1 -133 24 -151 17 -14 39
-19 86 -19 97 0 125 8 125 36 0 23 -3 24 -64 24 -73 0 -99 16 -94 59 3 25 6
26 71 29 64 3 67 4 67 27 0 24 -3 25 -65 25 -73 0 -87 12 -67 56 11 22 17 24
82 24 67 0 70 1 70 24 0 29 -20 36 -116 36 -56 0 -77 -4 -95 -19z"/>
<path d="M1165 935 c-27 -26 -34 -80 -14 -117 6 -11 44 -36 85 -54 55 -26 74
-40 74 -54 0 -18 -7 -20 -79 -20 l-79 0 -4 -29 c-5 -36 7 -41 115 -41 69 0 81
3 102 25 17 16 25 35 25 59 0 61 -17 82 -92 115 -109 49 -104 81 15 81 64 0
67 1 67 24 0 31 -15 36 -111 36 -71 0 -83 -3 -104 -25z"/>
<path d="M1430 925 c0 -35 0 -35 45 -35 l45 0 0 -135 0 -135 45 0 45 0 0 135
0 135 50 0 50 0 0 35 0 35 -140 0 -140 0 0 -35z"/>
</g>
</svg>
